<?xml version="1.0" encoding="utf-8"?>
<!-- Generator: Adobe Illustrator 17.0.0, SVG Export Plug-In . SVG Version: 6.00 Build 0)  -->
<!DOCTYPE svg PUBLIC "-//W3C//DTD SVG 1.1//EN" "http://www.w3.org/Graphics/SVG/1.1/DTD/svg11.dtd">
<svg version="1.1" id="Layer_1" xmlns="http://www.w3.org/2000/svg" xmlns:xlink="http://www.w3.org/1999/xlink" x="0px" y="0px"
	 width="46.887px" height="47.275px" viewBox="1.556 1.362 46.887 47.275" enable-background="new 1.556 1.362 46.887 47.275"
	 xml:space="preserve">
<linearGradient id="SVGID_1_" gradientUnits="userSpaceOnUse" x1="172.5164" y1="-121.6599" x2="219.4036" y2="-121.6599" gradientTransform="matrix(1 0 0 -1 -170.96 -96.66)">
	<stop  offset="0" style="stop-color:#ECE9E6"/>
	<stop  offset="1" style="stop-color:#FFFFFF"/>
</linearGradient>
<path fill="url(#SVGID_1_)" d="M21.254,48.589c-0.353,0.109-0.892,0.028-1.197-0.181L3.65,37.215
	c-0.305-0.208-0.578-0.68-0.605-1.049L1.559,16.364c-0.028-0.368,0.171-0.876,0.442-1.127L16.555,1.73
	c0.271-0.251,0.792-0.412,1.157-0.357l19.631,2.958c0.365,0.055,0.816,0.362,1,0.682l9.93,17.203
	c0.185,0.32,0.226,0.863,0.091,1.207l-7.251,18.49c-0.135,0.344-0.534,0.715-0.887,0.824L21.254,48.589z M31.155,32.546
	c0.353-0.109,0.752-0.479,0.887-0.824l3.114-7.941c0.135-0.344,0.094-0.888-0.091-1.207l-4.264-7.388
	c-0.185-0.32-0.635-0.627-1-0.682l-8.431-1.27c-0.365-0.055-0.886,0.106-1.157,0.357l-6.25,5.8c-0.271,0.251-0.47,0.759-0.442,1.127
	l0.638,8.504c0.028,0.368,0.3,0.84,0.605,1.049l7.046,4.807c0.305,0.208,0.844,0.29,1.197,0.181L31.155,32.546z"/>
</svg>
