<?xml version="1.0" encoding="utf-8"?>
<!-- Generator: Adobe Illustrator 17.0.0, SVG Export Plug-In . SVG Version: 6.00 Build 0)  -->
<!DOCTYPE svg PUBLIC "-//W3C//DTD SVG 1.1//EN" "http://www.w3.org/Graphics/SVG/1.1/DTD/svg11.dtd">
<svg version="1.1" id="Layer_1" xmlns="http://www.w3.org/2000/svg" xmlns:xlink="http://www.w3.org/1999/xlink" x="0px" y="0px"
	 width="260.015px" height="173.929px" viewBox="0 0 260.015 173.929" enable-background="new 0 0 260.015 173.929"
	 xml:space="preserve">
<linearGradient id="SVGID_1_" gradientUnits="userSpaceOnUse" x1="130.0074" y1="173.9291" x2="130.0074" y2="-4.867616e-009">
	<stop  offset="0" style="stop-color:#FFA626"/>
	<stop  offset="1" style="stop-color:#EF4136"/>
</linearGradient>
<path fill="url(#SVGID_1_)" d="M172.823,21.862c7.547,0,13.665,6.118,13.665,13.665s-6.118,13.665-13.665,13.665
	s-13.665-6.118-13.665-13.665S165.276,21.862,172.823,21.862z M213.817,65.584c7.547,0,13.665,6.118,13.665,13.665
	s-6.118,13.665-13.665,13.665s-13.665-6.118-13.665-13.665S206.27,65.584,213.817,65.584z M238.41,0H22.739
	C13.685,0,6.343,7.342,6.343,16.396v84.716c0,9.056,7.342,16.399,16.396,16.399h43.727c6.038,0,14.94-2.81,19.887-6.269
	l18.371-12.86h51.708l18.371,12.86c4.947,3.461,13.849,6.269,19.887,6.269h43.727c9.054,0,16.396-7.342,16.396-16.399V16.396
	C254.806,7.342,247.464,0,238.41,0z M96.525,62.854c0,3.019-2.447,5.464-5.466,5.464H71.932v19.129c0,3.019-2.447,5.469-5.466,5.469
	h-10.93c-3.019,0-5.466-2.45-5.466-5.469V68.317H30.936c-3.019,0-5.464-2.445-5.464-5.464V51.921c0-3.019,2.445-5.466,5.464-5.466
	h19.129V27.326c0-3.016,2.447-5.466,5.466-5.466h10.93c3.019,0,5.466,2.447,5.466,5.466v19.129h19.127
	c3.019,0,5.466,2.447,5.466,5.466v10.932H96.525z M172.823,57.39c-12.055,0-21.862-9.809-21.862-21.862s9.807-21.862,21.862-21.862
	s21.862,9.807,21.862,21.862S184.876,57.39,172.823,57.39z M213.817,101.112c-12.058,0-21.865-9.807-21.865-21.862
	s9.807-21.862,21.865-21.862c12.053,0,21.86,9.807,21.86,21.862S225.87,101.112,213.817,101.112z M8.361,173.671
	c-3.024,0-5.041-0.504-5.977-1.44c-0.936-1.008-1.368-3.24-1.368-6.769v-22.105c0-1.152,0.072-2.017,0-2.664
	c3.745-0.145,4.969-1.297,5.473-1.585c-4.104,0.793-6.192-1.08-6.409-3.168c-0.216-2.088,0.072-4.969,0.072-5.04
	c1.584,0.144,7.849,0.216,18.722,0.216c4.032,0,5.688,2.16,5.688,4.824c0,2.088-0.144,3.744-0.216,3.673
	c-1.08-0.36-4.752-0.505-10.945-0.505H9.585v8.065h1.296c4.752,0,8.568-0.072,11.449-0.145c-0.072,0.36-0.072,1.08,0,2.305
	c0.072,2.52-0.36,4.104-1.296,4.896c-0.864,0.792-2.592,1.151-5.257,1.151c-1.08,0-2.88,0-5.472-0.071
	c-2.592-0.072-4.608-0.145-5.977-0.145c1.44,0.792,3.168,1.584,5.256,2.376c-0.072,1.08-0.072,3.816-0.072,8.281
	c9.361,0,14.329-0.072,14.977-0.288v3.385c0,1.512-0.072,2.016-0.648,3.096c-0.504,1.08-1.872,1.512-4.176,1.584
	C18.01,173.671,14.266,173.671,8.361,173.671z M42.993,173.671c-1.872,0.072-3.312,0.072-4.392,0c-4.537,0-7.417-0.216-8.569-0.72
	c-1.656-0.648-2.448-2.16-2.448-4.537V138.82c0-0.288-1.872-1.368-0.864-7.562h3.96c3.24,0,5.544,1.729,5.544,5.113v28.298
	l-5.616,1.152h11.881v-1.944c0-7.129,1.8-9.217,8.641-8.064v12.313c0,4.033-0.864,5.473-4.824,5.473
	C45.945,173.599,44.865,173.599,42.993,173.671z M60.415,140.764c1.368-0.071,2.304-0.144,2.809-0.359
	c0.576-0.217,1.512-0.648,2.736-1.297c-2.232,0.433-4.032,0.072-5.328-1.008c-1.296-1.08-1.584-3.528-0.936-7.2
	c1.512,0.071,6.48,0.144,14.905,0.144c5.256,0,8.712,0.288,10.369,0.937c1.656,0.576,2.448,2.088,2.448,4.536v8.713
	c-0.432,0.072-1.008,0.216-1.728,0.288c-0.648,0.072-1.728,0-3.168-0.216c-1.44-0.217-2.448-0.648-3.096-1.368
	c-0.36-0.504-0.576-1.513-0.576-3.169c0-0.071,0.792-0.359,2.304-0.936c1.584-0.576,2.376-0.864,2.376-0.937H73.521h-4.608v12.602
	c0,1.296,0,3.024-0.072,5.185c-0.072,3.816,0.072,6.265,0.36,7.345c0.36,1.08,1.296,1.655,2.808,1.8c1.08,0.072,3.888,0,6.84,0
	h5.041l-5.041-2.088v-8.785c4.969-0.792,8.569,0.937,8.569,4.608c0,5.904-0.144,9.361-0.36,10.441
	c-0.36,1.728-1.296,2.808-2.952,3.24c-1.224,0.359-4.104,0.504-8.641,0.504c-1.368,0-3.168,0-5.4,0.071
	c-2.808,0.072-3.456,0.217-5.256,0c-1.728-0.288-1.872-0.216-2.952-1.008c-0.936-0.792-0.864-1.08-1.224-2.736
	c-0.216-0.792-0.288-1.584-0.288-2.232v-7.128c0.072-2.952,0.072-5.4,0.072-7.272V140.764z M113.696,140.764
	c1.368-0.071,2.304-0.144,2.808-0.359c0.576-0.217,1.512-0.648,2.736-1.297c-0.504,0.072-8.425,0.145-23.762,0.145
	c-3.96,0.36-6.336-1.656-5.112-8.353c0.792,0.071,2.952,0.071,6.553,0.144h30.963c5.256,0,8.712,0.288,10.368,0.937
	c1.656,0.576,2.448,2.088,2.448,4.536v8.713c-0.432,0.072-1.008,0.216-1.728,0.288c-0.648,0.072-1.729,0-3.169-0.216
	c-1.439-0.217-2.448-0.648-3.096-1.368c-0.36-0.504-0.576-1.513-0.576-3.169c0-0.071,0.792-0.359,2.304-0.936
	c1.585-0.576,2.377-0.864,2.377-0.937h-10.009h-4.609v12.602c0,1.296,0,3.024-0.072,5.185c-0.072,3.816,0.072,6.265,0.36,7.345
	c0.36,1.08,1.296,1.655,2.808,1.8c1.08,0.072,3.889,0,6.841,0h5.04l-5.04-2.088v-8.785c4.969-0.792,8.568,0.937,8.568,4.608
	c0,5.904-0.144,9.361-0.359,10.441c-0.36,1.728-1.297,2.808-2.952,3.24c-1.297,0.359-4.177,0.504-8.642,0.504
	c-1.368,0-3.168,0-5.4,0.071c-2.808,0.072-3.456,0.217-5.256,0c-1.729-0.288-1.873-0.216-2.953-1.008
	c-0.936-0.792-0.864-1.08-1.224-2.736c-0.216-0.792-0.288-1.584-0.288-2.232v-7.128c0.072-2.952,0.072-5.4,0.072-7.272V140.764z
	 M90.726,143.068c-0.288,0,2.448,0.072,6.409,0.072h6.697h2.88c1.152,0,2.809,0.504,3.168,1.008c0.216,0.216,0.36,0.647,0.576,1.368
	c0.504,1.368,0.432,2.521,0.432,5.4v14.905c0.144,3.96-0.288,5.688-1.008,6.841c-0.216,0.216-0.648,0.432-1.296,0.647
	c-1.368,0.36-2.088,0.36-4.752,0.36h-6.049c-3.384,0-5.472-0.36-6.121-1.008c-0.648-0.721-0.936-3.024-0.936-6.841V143.068z
	 M103.4,155.814v-1.513c0.072-1.655-0.072-2.664-0.36-2.88c-0.288-0.288-1.296-0.432-3.024-0.432h-0.504h-1.224h-4.464l4.536,1.728
	v8.785c0,2.16,0.216,3.456,0.576,3.889c0.36,0.432,1.44,0.647,3.096,0.647c0,0,0.432,0,1.368-0.072V155.814z M161.143,158.262
	l5.329-1.872h-19.154l5.329,1.8c0.072,0.072,0.144,0.072,0.216,0.072c-0.072,5.832-0.072,10.944,0.144,15.265
	c-0.071,0.072-1.224,0.072-3.527,0.072c-3.816,0-5.113-2.088-5.329-7.488c-0.072-4.32-0.072-13.465,0-27.362
	c-1.08-0.36-1.368-3.528-0.864-7.633c3.601,0.072,5.905,0.288,6.841,0.648c1.8,0.647,2.664,2.16,2.664,4.464v12.817h8.353v-3.889
	c0.072-1.8,0.072-3.313,0.072-4.681c0-5.04-0.144-8.137-0.359-9.36h3.672c2.809,0,5.257,1.944,5.328,5.616
	c0,1.44,0,5.112-0.071,11.089c-0.072,5.977-0.072,11.377-0.072,16.346c-2.376,1.008-3.744,1.584-4.104,1.656h4.104
	c15.193,0,23.042-0.072,23.689-0.288v3.385c0,1.512-0.071,2.016-0.647,3.096c-0.504,1.08-1.872,1.512-4.177,1.584
	c-1.656,0.072-9.001,0.072-22.105,0.072c-2.881,0-5.4-3.24-5.4-9.648C161.071,161.646,161.071,159.774,161.143,158.262z
	 M180.225,154.23l0.072-15.05h-1.801c-3.096,0-4.608-1.728-4.608-5.112l0.217-2.88c0.72,0.071,2.52,0.144,5.328,0.144h10.44
	c2.593,0,3.816,2.448,3.816,4.681s-0.071,3.384-0.144,3.384c-1.08-0.216-2.521-0.288-4.465-0.288h-1.224h-4.393l4.393,1.729v11.953
	v1.44h0.72c2.521,0,4.177-0.072,4.896-0.145l0.216,3.744c0,2.665-0.936,4.033-4.608,4.033h-4.248
	c-2.16-0.072-3.528-0.072-4.177-0.072h-1.439c-2.376,0-4.104,0.072-5.185,0.288c-0.072,0-0.145-1.513-0.145-4.465
	c0-2.232,1.297-3.384,3.816-3.384H180.225z M205.422,164.166c-2.521,1.008-3.96,1.584-4.32,1.656h4.104
	c15.193,0,23.042-0.072,23.689-0.288v3.385c0,1.512-0.071,2.016-0.647,3.096c-0.504,1.08-1.872,1.512-4.177,1.584
	c-2.231,0.072-7.633,0.072-16.273,0.072c-4.536,0-7.416-0.216-8.568-0.72c-1.656-0.648-2.448-2.16-2.448-4.537V138.82
	c0-0.288-1.872-1.368-0.864-7.562h3.961c3.24,0,5.544,1.729,5.544,5.113V164.166z M209.023,131.188
	c-0.288,0,2.448,0.071,6.408,0.071h6.696h2.881c1.152,0,2.808,0.505,3.168,1.009c0.216,0.216,0.36,0.647,0.576,1.368
	c0.504,1.368,0.432,2.52,0.432,5.4v14.905c0.145,3.96-0.288,5.688-1.008,6.841c-0.216,0.216-0.647,0.432-1.296,0.647
	c-1.368,0.36-2.088,0.36-4.753,0.36h-6.048c-3.385,0-5.473-0.36-6.121-1.008c-0.647-0.721-0.936-3.024-0.936-6.841V131.188z
	 M221.695,154.085v-10.152v-1.513c0.072-1.656-0.072-2.664-0.36-2.88c-0.288-0.288-1.296-0.433-3.023-0.433h-0.505h-1.224h-4.465
	l4.537,1.729v8.785c0,2.16,0.216,3.456,0.576,3.888c0.359,0.433,1.439,0.648,3.096,0.648L221.695,154.085z M259.928,138.964
	c-0.36-0.072-4.969-0.072-13.897-0.072h-4.608v12.602c0,1.296,0,3.024-0.072,5.185c-0.072,3.816,0.072,6.265,0.36,7.345
	c0.359,1.08,1.296,1.655,2.808,1.8c1.08,0.072,3.889,0,6.841,0h8.641c0.145,3.96-0.72,5.832-2.088,6.912
	c-0.36,0.288-1.152,0.505-2.305,0.721c-1.08,0.144-2.16,0.216-3.096,0.288h-4.536c-1.368,0-3.169,0-5.4,0.071
	c-2.809,0.072-3.457,0.217-5.257,0c-1.729-0.288-1.872-0.216-2.952-1.008c-0.937-0.792-0.864-1.08-1.225-2.736
	c-0.216-0.792-0.288-1.584-0.288-2.232v-7.128c0.072-2.952,0.072-5.4,0.072-7.272v-12.674c1.368-0.071,2.305-0.144,2.809-0.359
	c0.576-0.217,1.512-0.648,2.736-1.297c-2.232,0.433-4.032,0.072-5.329-1.008c-1.296-1.08-1.584-3.528-0.936-7.2
	c1.512,0.071,6.48,0.144,14.905,0.144c5.256,0,8.713,0.288,10.369,0.937c1.655,0.576,2.448,2.088,2.448,4.536V138.964z
	 M244.878,141.844h4.465h4.608c2.376,0,3.744,0.217,4.176,0.721c0.504,0.504,0.721,2.016,0.721,4.68v10.369
	c0,2.664-0.217,4.249-0.721,4.753c-0.432,0.504-1.8,0.72-4.176,0.72h-4.177c-2.376,0-3.744-0.216-4.248-0.72
	c-0.433-0.504-0.648-2.089-0.648-4.753V141.844z M253.663,150.701c0-1.801-0.072-2.809-0.217-3.024
	c-0.216-0.216-1.008-0.36-2.52-0.36h-0.792h-3.097l3.097,1.225v6.048c0,3.097,0.216,3.169,2.592,3.169c0,0,0.288,0,0.937-0.072
	V150.701z"/>
<g>
</g>
<g>
</g>
<g>
</g>
<g>
</g>
<g>
</g>
<g>
</g>
</svg>
